<svg xmlns="http://www.w3.org/2000/svg" width="25.299" height="23.62" viewBox="0 0 25.299 23.62">
  <g id="contact-info-icon" transform="translate(0.001 -0.5)">
    <path id="Path_437" data-name="Path 437" d="M241,28.512V39.348l3.884-1.942h9.507V28.512Zm0,0" transform="translate(-229.092 -26.628)" fill="#fff"/>
    <path id="Path_439" data-name="Path 439" d="M361,103.512h1.482v1.482H361Zm0,0" transform="translate(-343.162 -97.922)" fill="#fff"/>
    <path id="Path_440" data-name="Path 440" d="M421,103.512h1.482v1.482H421Zm0,0" transform="translate(-400.198 -97.922)" fill="#fff"/>
    <path id="Path_441" data-name="Path 441" d="M301,103.512h1.482v1.482H301Zm0,0" transform="translate(-286.127 -97.922)" fill="#fff"/>
    <path id="Path_443" data-name="Path 443" d="M18.089,14.909,14.513,18.5a27.766,27.766,0,0,1-4.868-4.048A29.426,29.426,0,0,1,5.563,9.614S8.342,6.846,9.184,6.005L3.678.5.983,3.194A3.7,3.7,0,0,0,.029,6.358c.277,2.845,2.9,7.173,6.68,11.027l0,.005c.119.094,6.51,6.729,11.462,6.729a3.753,3.753,0,0,0,2.763-1.048l2.655-2.655Zm0,0" transform="translate(0 0)" fill="#fff"/>
  </g>
</svg>
