<svg xmlns="http://www.w3.org/2000/svg" width="80" height="80" viewBox="0 0 80 80">
  <g id="how-it-works-icon" transform="translate(0.001 0)">
    <path id="Path_43" data-name="Path 43" d="M375.885,308.324l-5.839,5.692,1.378,8.036-7.217-3.794-7.216,3.794,1.378-8.036-5.839-5.692,8.069-1.172,3.608-7.312,3.609,7.313Z" transform="translate(-297.448 -252.99)" fill="#f1efea"/>
    <path id="Path_44" data-name="Path 44" d="M173.5,47.5v4.687H136V47.5a9.374,9.374,0,0,1,9.375-9.375,4.687,4.687,0,0,0,4.687-4.687V31.2a17.526,17.526,0,0,1-4.687-11.827c0-6.472,4.2-9.375,9.375-9.375s9.375,2.9,9.375,9.375A17.526,17.526,0,0,1,159.437,31.2v2.236a4.687,4.687,0,0,0,4.687,4.687A9.374,9.374,0,0,1,173.5,47.5Z" transform="translate(-114.751 -8.437)" fill="#fff"/>
    <path id="Path_45" data-name="Path 45" d="M204.616,368.324l-5.839,5.692,1.378,8.036-7.217-3.794-7.217,3.794,1.378-8.036-5.839-5.692,8.07-1.172,3.608-7.312,3.608,7.313Z" transform="translate(-152.939 -303.615)" fill="#f1efea"/>
    <path id="Path_46" data-name="Path 46" d="M33.355,308.324l-5.839,5.692,1.378,8.036-7.216-3.794-7.217,3.794,1.378-8.036L10,308.324l8.069-1.172,3.609-7.312,3.608,7.313Z" transform="translate(-8.439 -252.99)" fill="#f1efea"/>
    <path id="Path_47" data-name="Path 47" d="M197.665,359.4a1.562,1.562,0,0,0-1.261-1.063l-7.257-1.054-3.244-6.576a1.562,1.562,0,0,0-2.8,0l-3.244,6.576-7.257,1.054a1.562,1.562,0,0,0-.866,2.665l5.251,5.119-1.239,7.226A1.562,1.562,0,0,0,178.01,375l6.49-3.411,6.49,3.411a1.562,1.562,0,0,0,2.267-1.647l-1.239-7.226,5.251-5.119A1.562,1.562,0,0,0,197.665,359.4Zm-8.416,5.056a1.562,1.562,0,0,0-.449,1.383l.843,4.916-4.415-2.321a1.563,1.563,0,0,0-1.454,0l-4.415,2.321.843-4.916a1.562,1.562,0,0,0-.449-1.383l-3.572-3.482,4.937-.717a1.562,1.562,0,0,0,1.177-.855l2.206-4.472,2.207,4.472a1.563,1.563,0,0,0,1.177.855l4.937.717Z" transform="translate(-144.502 -295.178)" fill="#769b97"/>
    <path id="Path_48" data-name="Path 48" d="M26.4,299.4a1.562,1.562,0,0,0-1.261-1.063l-7.256-1.054-3.244-6.576a1.562,1.562,0,0,0-1.4-.871h0a1.562,1.562,0,0,0-1.4.871l-3.246,6.576-7.256,1.054a1.562,1.562,0,0,0-.866,2.665l5.251,5.119-1.239,7.226A1.563,1.563,0,0,0,6.749,315l6.49-3.411L19.728,315A1.563,1.563,0,0,0,22,313.352l-1.239-7.226,5.251-5.119a1.562,1.562,0,0,0,.4-1.6Zm-8.416,5.056a1.562,1.562,0,0,0-.449,1.383l.843,4.915-4.413-2.32a1.562,1.562,0,0,0-1.454,0L8.1,310.76l.843-4.916a1.562,1.562,0,0,0-.449-1.383l-3.572-3.482,4.936-.717a1.563,1.563,0,0,0,1.177-.855l2.208-4.473,2.207,4.473a1.562,1.562,0,0,0,1.177.855l4.936.717Z" transform="translate(0 -244.553)" fill="#769b97"/>
    <path id="Path_49" data-name="Path 49" d="M368.932,299.4a1.562,1.562,0,0,0-1.261-1.063l-7.256-1.054-3.246-6.576a1.562,1.562,0,0,0-2.8,0l-3.244,6.576-7.256,1.054a1.562,1.562,0,0,0-.866,2.665l5.251,5.119-1.239,7.226A1.563,1.563,0,0,0,349.28,315l6.488-3.411,6.49,3.411a1.563,1.563,0,0,0,2.267-1.647l-1.239-7.226,5.251-5.119A1.562,1.562,0,0,0,368.932,299.4Zm-8.416,5.056a1.563,1.563,0,0,0-.449,1.383l.843,4.916-4.415-2.321a1.563,1.563,0,0,0-1.454,0l-4.413,2.32.843-4.915a1.562,1.562,0,0,0-.449-1.383l-3.572-3.482,4.936-.717a1.562,1.562,0,0,0,1.177-.855l2.207-4.473,2.208,4.473a1.563,1.563,0,0,0,1.177.855l4.936.717Z" transform="translate(-289.01 -244.553)" fill="#769b97"/>
    <path id="Path_50" data-name="Path 50" d="M166.625,43.75V39.062a10.95,10.95,0,0,0-10.937-10.937A3.129,3.129,0,0,1,152.562,25V23.4a19.379,19.379,0,0,0,4.687-12.459C157.25,3.99,152.769,0,146.312,0s-10.937,3.985-10.937,10.937A19.379,19.379,0,0,0,140.062,23.4V25a3.129,3.129,0,0,1-3.125,3.125A10.95,10.95,0,0,0,126,39.062V43.75a1.562,1.562,0,0,0,1.562,1.562h25.652a1.562,1.562,0,1,0,0-3.125h-24.09V39.062a7.821,7.821,0,0,1,7.812-7.812,6.257,6.257,0,0,0,6.25-6.25V22.764a1.562,1.562,0,0,0-.471-1.118A16.047,16.047,0,0,1,138.5,10.937c0-7.051,5.463-7.812,7.812-7.812s7.812.761,7.812,7.812a16.047,16.047,0,0,1-4.217,10.709,1.563,1.563,0,0,0-.471,1.118V25a6.257,6.257,0,0,0,6.25,6.25,7.821,7.821,0,0,1,7.812,7.812v3.125H153.344a1.562,1.562,0,1,0,0,3.125h11.719A1.562,1.562,0,0,0,166.625,43.75Z" transform="translate(-106.314)" fill="#769b97"/>
  </g>
</svg>
