<svg xmlns="http://www.w3.org/2000/svg" xmlns:xlink="http://www.w3.org/1999/xlink" width="134" height="22" viewBox="0 0 134 22">
  <defs>
    <clipPath id="clip-path">
      <rect width="134" height="22" fill="none"/>
    </clipPath>
  </defs>
  <g id="Repeat_Grid_1" data-name="Repeat Grid 1" clip-path="url(#clip-path)">
    <g transform="translate(-941 -4424.776)">
      <path id="Polygon_1" data-name="Polygon 1" d="M11.037,1.14a.5.5,0,0,1,.926,0L14.546,7.5a.5.5,0,0,0,.426.31l6.814.506a.5.5,0,0,1,.287.879l-5.221,4.441a.5.5,0,0,0-.162.5l1.627,6.676a.5.5,0,0,1-.75.543l-5.8-3.615a.5.5,0,0,0-.529,0l-5.8,3.615a.5.5,0,0,1-.75-.543L6.31,14.133a.5.5,0,0,0-.162-.5L.928,9.192a.5.5,0,0,1,.287-.879l6.814-.506a.5.5,0,0,0,.426-.31Z" transform="translate(941 4424.776)" fill="#ffc233"/>
    </g>
    <g transform="translate(-914 -4424.776)">
      <path id="Polygon_1-2" data-name="Polygon 1" d="M11.037,1.14a.5.5,0,0,1,.926,0L14.546,7.5a.5.5,0,0,0,.426.31l6.814.506a.5.5,0,0,1,.287.879l-5.221,4.441a.5.5,0,0,0-.162.5l1.627,6.676a.5.5,0,0,1-.75.543l-5.8-3.615a.5.5,0,0,0-.529,0l-5.8,3.615a.5.5,0,0,1-.75-.543L6.31,14.133a.5.5,0,0,0-.162-.5L.928,9.192a.5.5,0,0,1,.287-.879l6.814-.506a.5.5,0,0,0,.426-.31Z" transform="translate(941 4424.776)" fill="#ffc233"/>
    </g>
    <g transform="translate(-887 -4424.776)">
      <path id="Polygon_1-3" data-name="Polygon 1" d="M11.037,1.14a.5.5,0,0,1,.926,0L14.546,7.5a.5.5,0,0,0,.426.31l6.814.506a.5.5,0,0,1,.287.879l-5.221,4.441a.5.5,0,0,0-.162.5l1.627,6.676a.5.5,0,0,1-.75.543l-5.8-3.615a.5.5,0,0,0-.529,0l-5.8,3.615a.5.5,0,0,1-.75-.543L6.31,14.133a.5.5,0,0,0-.162-.5L.928,9.192a.5.5,0,0,1,.287-.879l6.814-.506a.5.5,0,0,0,.426-.31Z" transform="translate(941 4424.776)" fill="#ffc233"/>
    </g>
    <g transform="translate(-860 -4424.776)">
      <path id="Polygon_1-4" data-name="Polygon 1" d="M11.037,1.14a.5.5,0,0,1,.926,0L14.546,7.5a.5.5,0,0,0,.426.31l6.814.506a.5.5,0,0,1,.287.879l-5.221,4.441a.5.5,0,0,0-.162.5l1.627,6.676a.5.5,0,0,1-.75.543l-5.8-3.615a.5.5,0,0,0-.529,0l-5.8,3.615a.5.5,0,0,1-.75-.543L6.31,14.133a.5.5,0,0,0-.162-.5L.928,9.192a.5.5,0,0,1,.287-.879l6.814-.506a.5.5,0,0,0,.426-.31Z" transform="translate(941 4424.776)" fill="#ffc233"/>
    </g>
    <g transform="translate(-833 -4424.776)">
      <path id="Polygon_1-5" data-name="Polygon 1" d="M11.037,1.14a.5.5,0,0,1,.926,0L14.546,7.5a.5.5,0,0,0,.426.31l6.814.506a.5.5,0,0,1,.287.879l-5.221,4.441a.5.5,0,0,0-.162.5l1.627,6.676a.5.5,0,0,1-.75.543l-5.8-3.615a.5.5,0,0,0-.529,0l-5.8,3.615a.5.5,0,0,1-.75-.543L6.31,14.133a.5.5,0,0,0-.162-.5L.928,9.192a.5.5,0,0,1,.287-.879l6.814-.506a.5.5,0,0,0,.426-.31Z" transform="translate(941 4424.776)" fill="#ffc233"/>
    </g>
  </g>
</svg>
