<svg xmlns="http://www.w3.org/2000/svg" width="67.635" height="67.635" viewBox="0 0 67.635 67.635">
  <g id="why-do-it-icon" transform="translate(0.001 0)">
    <path id="Path_43" data-name="Path 43" d="M372.275,307.013l-4.937,4.812,1.165,6.794-6.1-3.207-6.1,3.207,1.165-6.794-4.937-4.812,6.822-.991,3.05-6.182,3.051,6.182Z" transform="translate(-305.962 -260.232)" fill="#f1efea"/>
    <path id="Path_44" data-name="Path 44" d="M167.7,41.7v3.963H136V41.7a7.925,7.925,0,0,1,7.926-7.926,3.963,3.963,0,0,0,3.963-3.963v-1.89a14.817,14.817,0,0,1-3.963-10c0-5.472,3.548-7.926,7.926-7.926s7.926,2.454,7.926,7.926a14.817,14.817,0,0,1-3.963,10v1.89a3.963,3.963,0,0,0,3.963,3.963A7.925,7.925,0,0,1,167.7,41.7Z" transform="translate(-118.036 -8.679)" fill="#f1efea"/>
    <path id="Path_45" data-name="Path 45" d="M201.006,367.013l-4.937,4.812,1.165,6.794-6.1-3.207-6.1,3.207,1.165-6.794-4.937-4.812,6.823-.991,3.05-6.182,3.05,6.182Z" transform="translate(-157.317 -312.306)" fill="#f1efea"/>
    <path id="Path_46" data-name="Path 46" d="M29.745,307.013l-4.937,4.812,1.165,6.794-6.1-3.207-6.1,3.207,1.165-6.794L10,307.013l6.822-.991,3.051-6.182,3.05,6.182Z" transform="translate(-8.68 -260.232)" fill="#f1efea"/>
    <path id="Path_47" data-name="Path 47" d="M193.583,357.926a1.321,1.321,0,0,0-1.066-.9l-6.135-.891-2.743-5.559a1.321,1.321,0,0,0-2.369,0l-2.743,5.559-6.135.891a1.321,1.321,0,0,0-.732,2.253l4.439,4.328-1.048,6.109a1.321,1.321,0,0,0,1.917,1.393l5.487-2.884,5.487,2.884a1.321,1.321,0,0,0,1.917-1.393l-1.048-6.109,4.439-4.328A1.321,1.321,0,0,0,193.583,357.926Zm-7.115,4.275a1.321,1.321,0,0,0-.38,1.169l.713,4.156-3.733-1.962a1.322,1.322,0,0,0-1.229,0l-3.733,1.962.713-4.156a1.321,1.321,0,0,0-.38-1.169l-3.02-2.944,4.174-.606a1.321,1.321,0,0,0,.995-.723l1.865-3.781,1.865,3.781a1.321,1.321,0,0,0,.995.723l4.174.606Z" transform="translate(-148.638 -303.627)" fill="#769b97"/>
    <path id="Path_48" data-name="Path 48" d="M22.321,297.927a1.321,1.321,0,0,0-1.066-.9l-6.134-.891-2.743-5.559a1.321,1.321,0,0,0-1.185-.737h0a1.321,1.321,0,0,0-1.185.736l-2.744,5.559-6.134.891A1.321,1.321,0,0,0,.4,299.281l4.439,4.328-1.048,6.109a1.321,1.321,0,0,0,1.917,1.393l5.487-2.884,5.486,2.884a1.321,1.321,0,0,0,1.917-1.393l-1.048-6.109,4.439-4.328a1.32,1.32,0,0,0,.334-1.354ZM15.206,302.2a1.321,1.321,0,0,0-.38,1.169l.713,4.156-3.731-1.962a1.321,1.321,0,0,0-1.229,0l-3.733,1.962.713-4.156a1.321,1.321,0,0,0-.38-1.169l-3.02-2.944,4.173-.606a1.321,1.321,0,0,0,.995-.723l1.867-3.782,1.866,3.782a1.321,1.321,0,0,0,.995.723l4.173.606Z" transform="translate(0 -251.553)" fill="#769b97"/>
    <path id="Path_49" data-name="Path 49" d="M364.851,297.926a1.321,1.321,0,0,0-1.066-.9l-6.134-.891-2.744-5.56a1.321,1.321,0,0,0-2.369,0l-2.743,5.559-6.134.891a1.321,1.321,0,0,0-.732,2.253l4.439,4.328-1.048,6.109a1.321,1.321,0,0,0,1.917,1.393l5.486-2.884,5.487,2.884a1.321,1.321,0,0,0,1.917-1.393l-1.048-6.109,4.439-4.328A1.321,1.321,0,0,0,364.851,297.926Zm-7.115,4.275a1.321,1.321,0,0,0-.38,1.169l.713,4.156-3.733-1.962a1.321,1.321,0,0,0-1.229,0l-3.731,1.962.713-4.156a1.321,1.321,0,0,0-.38-1.169l-3.02-2.944,4.173-.606a1.321,1.321,0,0,0,.995-.723l1.866-3.782,1.867,3.782a1.321,1.321,0,0,0,.995.723l4.173.606Z" transform="translate(-297.282 -251.553)" fill="#769b97"/>
    <path id="Path_50" data-name="Path 50" d="M160.346,36.988V33.025a9.257,9.257,0,0,0-9.247-9.247,2.645,2.645,0,0,1-2.642-2.642V19.78A16.383,16.383,0,0,0,152.42,9.247c0-5.874-3.789-9.247-9.247-9.247s-9.247,3.369-9.247,9.247a16.383,16.383,0,0,0,3.963,10.534v1.355a2.645,2.645,0,0,1-2.642,2.642A9.257,9.257,0,0,0,126,33.025v3.963a1.321,1.321,0,0,0,1.321,1.321h21.687a1.321,1.321,0,0,0,0-2.642H128.642V33.025a6.612,6.612,0,0,1,6.6-6.6,5.29,5.29,0,0,0,5.284-5.284v-1.89a1.321,1.321,0,0,0-.4-.945,13.567,13.567,0,0,1-3.565-9.053c0-5.961,4.619-6.6,6.6-6.6s6.6.644,6.6,6.6a13.567,13.567,0,0,1-3.565,9.053,1.321,1.321,0,0,0-.4.945v1.89A5.29,5.29,0,0,0,151.1,26.42a6.612,6.612,0,0,1,6.6,6.6v2.642h-8.586a1.321,1.321,0,0,0,0,2.642h9.907A1.321,1.321,0,0,0,160.346,36.988Z" transform="translate(-109.357)" fill="#769b97"/>
  </g>
</svg>
